<svg width="730" height="730" xmlns="http://www.w3.org/2000/svg">
    <g>
        <title>Layer 1</title>
        <ellipse stroke-width="0" stroke="#000" ry="360" rx="360" id="svg_1" cy="365" cx="365"
            fill="#ffffff" />
        <g stroke="null">
            <path stroke="null" p-id="16883" fill="#4d6bfe"
                d="m516.82198,115.45237l-34.52193,34.56642a66.73054,66.73054 0 0 0 89.59688,98.67223l4.76011,-4.31524l34.56642,-34.52193a133.4166,133.4166 0 0 1 -163.44534,163.44534l-39.14859,39.1041l55.87571,55.87571a44.48703,44.48703 0 0 1 42.92998,11.56663l62.90466,62.86017a44.48703,44.48703 0 0 1 -62.90466,62.94915l-62.90466,-62.94915a44.48703,44.48703 0 0 1 -11.56663,-42.97447l-55.83122,-55.83122l-146.49579,146.49579a66.73054,66.73054 0 0 1 -94.40148,-94.35699l146.58476,-146.54027l-105.70118,-105.61221l-15.70392,15.70392l-47.20074,-78.60858l31.45233,-31.45233l78.65307,47.15625l-15.74841,15.74841l105.65669,105.56772l39.14859,-39.05961a133.4166,133.4166 0 0 1 163.48983,-163.48983l-0.04449,0zm-349.1342,412.03886a22.24351,22.24351 0 1 0 31.49682,31.45233a22.24351,22.24351 0 0 0 -31.49682,-31.45233z" />
        </g>
        <rect transform="rotate(-45.1739 483.323 518.906)" stroke="#000" stroke-width="0" id="svg_2"
            height="255.26732" width="120.46454" y="391.27245" x="423.09113" fill="#ffffff" />
        <ellipse ry="128.125" rx="128.125" id="svg_3" cy="513.125" cx="398.75" stroke-width="0"
            stroke="#000" fill="#ffffff" />
        <g stroke="null">
            <path stroke="null" p-id="4470" fill="#4d6bfe"
                d="m638.01629,425.62626c-3.61463,-1.76428 -5.16375,1.59216 -7.28663,3.29907c-0.71719,0.57375 -1.33397,1.29094 -1.93641,1.93641c-5.27851,5.66578 -11.43198,9.35213 -19.47883,8.90748c-11.77623,-0.64547 -21.81686,3.05522 -30.69565,12.07745c-1.90772,-11.13076 -8.17594,-17.75758 -17.71455,-22.01767c-5.00597,-2.22328 -10.05498,-4.43222 -13.54051,-9.25173c-2.45278,-3.41382 -3.1126,-7.22926 -4.34616,-10.97298c-0.77456,-2.28066 -1.54913,-4.59001 -4.15969,-4.99163c-2.82572,-0.44466 -3.93019,1.93641 -5.04901,3.91585c-4.44657,8.13291 -6.16782,17.09776 -6.01003,26.17737c0.40162,20.38249 9.00788,36.63397 26.10565,48.19504c1.95075,1.33397 2.43844,2.66794 1.836,4.60435c-1.16184,3.97322 -2.55319,7.84604 -3.78675,11.81926c-0.77456,2.55319 -1.93641,3.1126 -4.64738,2.00812a78.14482,78.14482 0 0 1 -24.65693,-16.76786c-12.16351,-11.76189 -23.15083,-24.75734 -36.86347,-34.92706c-3.22735,-2.38106 -6.44035,-4.59001 -9.7681,-6.69854c-13.99951,-13.62657 1.836,-24.80036 5.49366,-26.10565c3.82978,-1.377 1.33397,-6.13913 -11.0447,-6.08176c-12.37866,0.05738 -23.71024,4.20272 -38.14006,9.71073a39.90435,39.90435 0 0 1 -6.59813,1.93641a137.04031,137.04031 0 0 0 -40.92276,-1.43437c-26.76546,3.01219 -48.13767,15.66339 -63.85843,37.29378c-18.86205,25.96221 -23.30862,55.51036 -17.87233,86.32077c5.72316,32.43125 22.26152,59.3258 47.70736,80.33942c26.34949,21.77383 56.72958,32.44559 91.36977,30.40878c21.02796,-1.21922 44.46567,-4.04494 70.88688,-26.42121c6.66985,3.29907 13.65526,4.61869 25.27371,5.62276c8.93617,0.84628 17.54242,-0.44466 24.19793,-1.82166c10.44226,-2.20894 9.71073,-11.87664 5.93832,-13.6696c-30.5809,-14.2577 -23.88237,-8.46282 -29.97846,-13.13889c15.54864,-18.43173 38.972,-37.56632 48.13767,-99.54571c0.71719,-4.91991 0.10041,-8.00382 0,-12.00573c-0.05737,-2.40975 0.48769,-3.37078 3.25604,-3.64332a58.57993,58.57993 0 0 0 21.94596,-6.74157c19.82308,-10.85823 27.79821,-28.6445 29.69159,-49.98802c0.28688,-3.25604 -0.05737,-6.64116 -3.48553,-8.34807zm-172.71325,192.07733c-29.64856,-23.33731 -44.03535,-31.01122 -49.95933,-30.66697c-5.55104,0.30122 -4.56132,6.66985 -3.34209,10.8152c1.27659,4.08797 2.94047,6.9137 5.2785,10.49963c1.62085,2.38107 2.72532,5.93832 -1.6065,8.57757c-9.55295,5.93832 -26.14868,-1.99379 -26.93759,-2.38107c-19.32105,-11.3746 -35.47212,-26.42121 -46.86107,-46.99017c-10.97298,-19.79439 -17.35595,-41.0375 -18.41739,-63.70065c-0.28688,-5.49366 1.33397,-7.43007 6.77025,-8.40544a67.30094,67.30094 0 0 1 21.71646,-0.57375c30.251,4.44657 56.0124,18.00143 77.59976,39.43101c12.33564,12.23523 21.65908,26.83718 31.2694,41.09488c10.19842,15.16136 21.20008,29.59118 35.19959,41.41044c4.91991,4.14535 8.87879,7.31532 12.63686,9.63901c-11.37461,1.26225 -30.36575,1.53478 -43.34685,-8.74969zm14.20033,-91.51321a4.3605,4.3605 0 1 1 8.73535,0c0,2.43844 -1.95075,4.3605 -4.38919,4.3605a4.30313,4.30313 0 0 1 -4.34616,-4.37484l0,0.01434zm44.13576,22.69183c-2.82572,1.1475 -5.65144,2.15156 -8.37676,2.26632a17.87233,17.87233 0 0 1 -11.33157,-3.61463c-3.87282,-3.25604 -6.64116,-5.07769 -7.83169,-10.78651a25.13027,25.13027 0 0 1 0.2295,-8.34807c1.00407,-4.66172 -0.11475,-7.61654 -3.37078,-10.32751c-2.68228,-2.22328 -6.05307,-2.81138 -9.78244,-2.81138a7.90341,7.90341 0 0 1 -3.61463,-1.11881c-1.54913,-0.78891 -2.82572,-2.72531 -1.6065,-5.10638c0.38728,-0.76022 2.28066,-2.62491 2.72532,-2.96916c5.049,-2.8831 10.87257,-1.93641 16.26583,0.2295c5.00597,2.03681 8.76404,5.79488 14.20033,11.08773c5.56538,6.41166 6.5551,8.20463 9.72507,12.99545c2.49581,3.78675 4.77647,7.65957 6.3256,12.07745c0.94669,2.754 -0.28688,5.02032 -3.55725,6.426z" />
        </g>
    </g>
</svg>